<?xml version="1.0" encoding="utf-8"?>
<!-- Generator: Adobe Illustrator 22.0.1, SVG Export Plug-In . SVG Version: 6.00 Build 0)  -->
<svg version="1.1" id="Layer_1" xmlns="http://www.w3.org/2000/svg" xmlns:xlink="http://www.w3.org/1999/xlink" x="0px" y="0px"
	 viewBox="0 0 149.9 48.8" style="enable-background:new 0 0 149.9 48.8;" xml:space="preserve">
<style type="text/css">
	.st0{fill:#6F6F6E;}
	.st1{fill:#F2911B;}
</style>
<g id="XMLID_2_">
	<g id="XMLID_1042_">
		<g>
			<path id="XMLID_496_" class="st0" d="M6.5,40.1v0.7c-0.6-0.4-1.1-0.6-1.6-0.6c-0.4,0-0.7,0.1-0.9,0.3s-0.4,0.4-0.4,0.7
				c0,0.2,0.1,0.4,0.2,0.6c0.1,0.2,0.6,0.4,1.2,0.6c0.7,0.3,1.1,0.5,1.3,0.8c0.2,0.3,0.3,0.6,0.3,0.9c0,0.5-0.2,0.8-0.6,1.2
				c-0.4,0.3-0.8,0.5-1.4,0.5c-0.6,0-1.2-0.2-1.8-0.5v-0.6c0.7,0.4,1.3,0.5,1.8,0.5c0.4,0,0.7-0.1,0.9-0.3c0.2-0.2,0.3-0.4,0.3-0.7
				c0-0.2-0.1-0.4-0.2-0.6c-0.2-0.2-0.6-0.4-1.2-0.7c-0.7-0.3-1.1-0.5-1.3-0.8C3.1,41.8,3,41.6,3,41.2c0-0.4,0.2-0.8,0.6-1.1
				s0.8-0.5,1.3-0.5C5.4,39.6,5.9,39.8,6.5,40.1z"/>
			<path id="XMLID_493_" class="st0" d="M8.6,36.7v1.1H8v-1.1H8.6z M8.6,39.7v5.9H8v-5.9H8.6z"/>
			<path id="XMLID_491_" class="st0" d="M11,39.7v1h0c0.5-0.8,1.1-1.2,1.9-1.2c0.9,0,1.5,0.5,1.9,1.4c0.6-0.9,1.2-1.4,2-1.4
				c0.6,0,1.1,0.2,1.5,0.7c0.4,0.4,0.6,1,0.6,1.7v3.6h-0.6v-3.3c0-0.6-0.1-1.1-0.4-1.5c-0.3-0.4-0.6-0.5-1.1-0.5
				c-0.4,0-0.7,0.1-0.9,0.3c-0.3,0.2-0.5,0.6-0.8,1v4h-0.6v-3.3c0-0.7-0.1-1.2-0.4-1.5s-0.7-0.5-1.1-0.5c-0.7,0-1.3,0.4-1.8,1.3v4.1
				h-0.6v-5.9H11z"/>
			<path id="XMLID_488_" class="st0" d="M21.1,39.7v0.3c0.6-0.3,1.2-0.4,1.8-0.4c0.8,0,1.5,0.3,2.1,0.9s0.8,1.3,0.8,2.2
				c0,0.9-0.3,1.6-0.9,2.2c-0.6,0.6-1.3,0.9-2.1,0.9c-0.6,0-1.1-0.1-1.7-0.4v3.3h-0.6v-8.9H21.1z M21.1,40.7v4
				c0.5,0.3,1.1,0.4,1.6,0.4c0.7,0,1.3-0.2,1.7-0.7c0.4-0.4,0.7-1,0.7-1.7c0-0.7-0.2-1.3-0.7-1.8c-0.5-0.5-1-0.7-1.7-0.7
				C22.1,40.2,21.6,40.4,21.1,40.7z"/>
			<path id="XMLID_486_" class="st0" d="M27.9,36.7v8.9h-0.6v-8.9H27.9z"/>
			<path id="XMLID_483_" class="st0" d="M34.6,42.5H30c0,0.1,0,0.2,0,0.3c0,0.7,0.2,1.2,0.7,1.7c0.5,0.5,1,0.7,1.7,0.7
				c0.7,0,1.5-0.3,2.2-0.9V45c-0.7,0.5-1.4,0.8-2.3,0.8c-0.8,0-1.5-0.3-2.1-0.9c-0.6-0.6-0.8-1.3-0.8-2.2c0-0.9,0.3-1.6,0.8-2.1
				c0.5-0.6,1.2-0.8,1.9-0.8c0.7,0,1.3,0.3,1.8,0.8C34.4,40.9,34.6,41.6,34.6,42.5z M30.1,42h3.8c-0.2-1.1-0.8-1.7-1.9-1.7
				c-0.5,0-0.9,0.2-1.2,0.5C30.4,41,30.2,41.4,30.1,42z"/>
			<path id="XMLID_481_" class="st0" d="M42.7,40.1v0.7c-0.6-0.4-1.1-0.6-1.6-0.6c-0.4,0-0.7,0.1-0.9,0.3c-0.2,0.2-0.4,0.4-0.4,0.7
				c0,0.2,0.1,0.4,0.2,0.6c0.1,0.2,0.6,0.4,1.2,0.6c0.7,0.3,1.1,0.5,1.3,0.8c0.2,0.3,0.3,0.6,0.3,0.9c0,0.5-0.2,0.8-0.6,1.2
				c-0.4,0.3-0.8,0.5-1.4,0.5c-0.6,0-1.2-0.2-1.8-0.5v-0.6c0.7,0.4,1.3,0.5,1.8,0.5c0.4,0,0.7-0.1,0.9-0.3c0.2-0.2,0.3-0.4,0.3-0.7
				c0-0.2-0.1-0.4-0.2-0.6c-0.2-0.2-0.6-0.4-1.2-0.7c-0.7-0.3-1.1-0.5-1.3-0.8c-0.2-0.3-0.3-0.5-0.3-0.9c0-0.4,0.2-0.8,0.6-1.1
				s0.8-0.5,1.3-0.5C41.7,39.6,42.2,39.8,42.7,40.1z"/>
			<path id="XMLID_478_" class="st0" d="M46.9,39.6c0.9,0,1.6,0.3,2.1,0.9c0.6,0.6,0.9,1.3,0.9,2.2c0,0.9-0.3,1.6-0.9,2.2
				s-1.3,0.9-2.1,0.9c-0.9,0-1.6-0.3-2.1-0.9c-0.6-0.6-0.9-1.3-0.9-2.2c0-0.9,0.3-1.6,0.9-2.2C45.3,39.9,46,39.6,46.9,39.6z
				 M46.9,45.1c0.7,0,1.2-0.2,1.7-0.7c0.4-0.5,0.7-1,0.7-1.7c0-0.7-0.2-1.3-0.7-1.7c-0.4-0.5-1-0.7-1.7-0.7c-0.7,0-1.2,0.2-1.7,0.7
				c-0.4,0.5-0.7,1-0.7,1.8c0,0.7,0.2,1.3,0.7,1.7C45.7,44.9,46.2,45.1,46.9,45.1z"/>
			<path id="XMLID_476_" class="st0" d="M52,36.7v8.9h-0.6v-8.9H52z"/>
			<path id="XMLID_474_" class="st0" d="M57.9,45.6v-1h0c-0.3,0.4-0.6,0.7-0.8,0.8c-0.3,0.2-0.7,0.2-1.1,0.2c-0.6,0-1.2-0.2-1.6-0.6
				c-0.4-0.4-0.6-1-0.6-1.7v-3.6h0.6v3.6c0,0.5,0.1,1,0.4,1.3c0.3,0.3,0.7,0.5,1.2,0.5c0.4,0,0.8-0.1,1-0.3c0.3-0.2,0.6-0.5,0.9-1
				v-4.1h0.6v5.9H57.9z"/>
			<path id="XMLID_472_" class="st0" d="M61.3,37.8v1.9h1.6v0.5h-1.6v3.5c0,0.6,0,0.9,0.1,1.1c0.1,0.2,0.3,0.3,0.7,0.3
				c0.3,0,0.7-0.1,1.1-0.3v0.6c-0.4,0.2-0.8,0.3-1.2,0.3c-0.4,0-0.7-0.1-1-0.3c-0.3-0.2-0.4-0.5-0.4-0.9v-4.2h-1.6v-0.5h1.6v-1.4
				l0.4-0.5H61.3z"/>
			<path id="XMLID_469_" class="st0" d="M64.8,36.7v1.1h-0.6v-1.1H64.8z M64.8,39.7v5.9h-0.6v-5.9H64.8z"/>
			<path id="XMLID_466_" class="st0" d="M69.3,39.6c0.9,0,1.6,0.3,2.1,0.9c0.6,0.6,0.9,1.3,0.9,2.2c0,0.9-0.3,1.6-0.9,2.2
				c-0.6,0.6-1.3,0.9-2.1,0.9c-0.9,0-1.6-0.3-2.1-0.9c-0.6-0.6-0.9-1.3-0.9-2.2c0-0.9,0.3-1.6,0.9-2.2
				C67.7,39.9,68.4,39.6,69.3,39.6z M69.3,45.1c0.7,0,1.2-0.2,1.7-0.7c0.4-0.5,0.7-1,0.7-1.7c0-0.7-0.2-1.3-0.7-1.7
				c-0.4-0.5-1-0.7-1.7-0.7c-0.7,0-1.2,0.2-1.7,0.7c-0.4,0.5-0.7,1-0.7,1.8c0,0.7,0.2,1.3,0.7,1.7C68.1,44.9,68.6,45.1,69.3,45.1z"
				/>
			<path id="XMLID_464_" class="st0" d="M74.3,39.7v1h0c0.5-0.8,1.1-1.1,1.9-1.1c0.7,0,1.2,0.2,1.6,0.6c0.4,0.4,0.6,1,0.6,1.8v3.6
				h-0.6v-3.3c0-1.4-0.5-2-1.6-2c-0.8,0-1.4,0.4-1.9,1.3v4.1h-0.6v-5.9H74.3z"/>
			<path id="XMLID_462_" class="st0" d="M83.3,40.1v0.7c-0.6-0.4-1.1-0.6-1.6-0.6c-0.4,0-0.7,0.1-0.9,0.3s-0.4,0.4-0.4,0.7
				c0,0.2,0.1,0.4,0.2,0.6c0.1,0.2,0.6,0.4,1.2,0.6c0.7,0.3,1.1,0.5,1.3,0.8c0.2,0.3,0.3,0.6,0.3,0.9c0,0.5-0.2,0.8-0.6,1.2
				c-0.4,0.3-0.8,0.5-1.4,0.5c-0.6,0-1.2-0.2-1.8-0.5v-0.6c0.7,0.4,1.3,0.5,1.8,0.5c0.4,0,0.7-0.1,0.9-0.3c0.2-0.2,0.3-0.4,0.3-0.7
				c0-0.2-0.1-0.4-0.2-0.6c-0.2-0.2-0.6-0.4-1.2-0.7c-0.7-0.3-1.1-0.5-1.3-0.8c-0.2-0.3-0.3-0.5-0.3-0.9c0-0.4,0.2-0.8,0.6-1.1
				s0.8-0.5,1.3-0.5C82.2,39.6,82.7,39.8,83.3,40.1z"/>
			<path id="XMLID_460_" class="st0" d="M91.9,36.8v0.6c-0.4-0.1-0.8-0.2-1.1-0.2c-1,0-1.4,0.6-1.4,1.8v0.7h1.1v0.5h-1.1v5.4h-0.6
				v-5.4h-1.1v-0.5h1.1v-1c0-0.7,0.2-1.2,0.6-1.6c0.4-0.4,0.9-0.6,1.4-0.6C91.1,36.6,91.5,36.7,91.9,36.8z"/>
			<path id="XMLID_457_" class="st0" d="M94.1,39.6c0.9,0,1.6,0.3,2.1,0.9c0.6,0.6,0.9,1.3,0.9,2.2c0,0.9-0.3,1.6-0.9,2.2
				c-0.6,0.6-1.3,0.9-2.1,0.9c-0.9,0-1.6-0.3-2.1-0.9c-0.6-0.6-0.9-1.3-0.9-2.2c0-0.9,0.3-1.6,0.9-2.2
				C92.5,39.9,93.2,39.6,94.1,39.6z M94.1,45.1c0.7,0,1.2-0.2,1.7-0.7c0.4-0.5,0.7-1,0.7-1.7c0-0.7-0.2-1.3-0.7-1.7
				c-0.4-0.5-1-0.7-1.7-0.7c-0.7,0-1.2,0.2-1.7,0.7c-0.4,0.5-0.7,1-0.7,1.8c0,0.7,0.2,1.3,0.7,1.7C92.9,44.9,93.4,45.1,94.1,45.1z"
				/>
			<path id="XMLID_455_" class="st0" d="M102.5,40.3l-0.4,0.6c-0.5-0.4-0.9-0.7-1.2-0.7c-0.6,0-1.2,0.6-1.9,1.7v3.7h-0.6v-5.9h0.6
				v1.5h0c0.7-1.1,1.4-1.7,2.1-1.7C101.5,39.6,102,39.9,102.5,40.3z"/>
			<path id="XMLID_452_" class="st0" d="M107.2,36.7v1.1h-0.6v-1.1H107.2z M107.2,39.7v5.9h-0.6v-5.9H107.2z"/>
			<path id="XMLID_450_" class="st0" d="M109.5,39.7v1h0c0.5-0.8,1.1-1.1,1.9-1.1c0.7,0,1.2,0.2,1.6,0.6c0.4,0.4,0.6,1,0.6,1.8v3.6
				H113v-3.3c0-1.4-0.5-2-1.6-2c-0.8,0-1.4,0.4-1.9,1.3v4.1h-0.6v-5.9H109.5z"/>
			<path id="XMLID_447_" class="st0" d="M120.4,36.7v8.9h-0.6v-0.5c-0.5,0.4-1.1,0.6-1.7,0.6c-0.8,0-1.5-0.3-2.1-0.9
				c-0.6-0.6-0.9-1.3-0.9-2.2c0-0.9,0.3-1.6,0.8-2.2c0.6-0.6,1.3-0.9,2.1-0.9c0.5,0,1.1,0.2,1.7,0.5v-3.4H120.4z M119.8,44.6v-3.8
				c-0.6-0.4-1.1-0.5-1.7-0.5c-0.7,0-1.2,0.2-1.7,0.7c-0.4,0.4-0.7,1-0.7,1.7c0,0.7,0.2,1.3,0.7,1.8c0.5,0.5,1.1,0.7,1.8,0.7
				C118.7,45.1,119.2,44.9,119.8,44.6z"/>
			<path id="XMLID_445_" class="st0" d="M126.1,45.6v-1h0c-0.3,0.4-0.6,0.7-0.8,0.8c-0.3,0.2-0.7,0.2-1.1,0.2
				c-0.6,0-1.2-0.2-1.6-0.6c-0.4-0.4-0.6-1-0.6-1.7v-3.6h0.6v3.6c0,0.5,0.1,1,0.4,1.3c0.3,0.3,0.7,0.5,1.2,0.5c0.4,0,0.8-0.1,1-0.3
				c0.3-0.2,0.6-0.5,0.9-1v-4.1h0.6v5.9H126.1z"/>
			<path id="XMLID_443_" class="st0" d="M131.6,40.1v0.7c-0.6-0.4-1.1-0.6-1.6-0.6c-0.4,0-0.7,0.1-0.9,0.3c-0.2,0.2-0.4,0.4-0.4,0.7
				c0,0.2,0.1,0.4,0.2,0.6c0.1,0.2,0.6,0.4,1.2,0.6c0.7,0.3,1.1,0.5,1.3,0.8c0.2,0.3,0.3,0.6,0.3,0.9c0,0.5-0.2,0.8-0.6,1.2
				c-0.4,0.3-0.8,0.5-1.4,0.5c-0.6,0-1.2-0.2-1.8-0.5v-0.6c0.7,0.4,1.3,0.5,1.8,0.5c0.4,0,0.7-0.1,0.9-0.3c0.2-0.2,0.3-0.4,0.3-0.7
				c0-0.2-0.1-0.4-0.2-0.6c-0.2-0.2-0.6-0.4-1.2-0.7c-0.7-0.3-1.1-0.5-1.3-0.8c-0.2-0.3-0.3-0.5-0.3-0.9c0-0.4,0.2-0.8,0.6-1.1
				c0.4-0.3,0.8-0.5,1.3-0.5C130.6,39.6,131.1,39.8,131.6,40.1z"/>
			<path id="XMLID_441_" class="st0" d="M134.2,37.8v1.9h1.6v0.5h-1.6v3.5c0,0.6,0,0.9,0.1,1.1c0.1,0.2,0.3,0.3,0.7,0.3
				c0.3,0,0.7-0.1,1.1-0.3v0.6c-0.4,0.2-0.8,0.3-1.2,0.3c-0.4,0-0.7-0.1-1-0.3c-0.3-0.2-0.4-0.5-0.4-0.9v-4.2H132v-0.5h1.6v-1.4
				l0.4-0.5H134.2z"/>
			<path id="XMLID_439_" class="st0" d="M141.1,40.3l-0.4,0.6c-0.5-0.4-0.9-0.7-1.2-0.7c-0.6,0-1.2,0.6-1.9,1.7v3.7H137v-5.9h0.6
				v1.5h0c0.7-1.1,1.4-1.7,2.1-1.7C140.1,39.6,140.6,39.9,141.1,40.3z"/>
			<path id="XMLID_437_" class="st0" d="M147,39.7l-4.4,8.9H142l2.1-4.2l-2.5-4.7h0.7l2.1,4.1l2-4.1H147z"/>
		</g>
	</g>
	<circle id="XMLID_555_" class="st0" cx="89.1" cy="27.4" r="3.9"/>
	<g id="XMLID_6_">
		<path id="XMLID_560_" class="st0" d="M32.7,7.8h-8.9c-0.5,0-1,0.4-1,1v20.5c0,0.5-0.4,1-1,1h-7c-0.5,0-1-0.4-1-1V8.7
			c0-0.5-0.4-1-1-1H4c-0.5,0-1-0.4-1-1V1.5c0-0.5,0.4-1,1-1h28.7c0.5,0,1,0.4,1,1v5.3C33.7,7.3,33.2,7.8,32.7,7.8z"/>
		<path id="XMLID_558_" class="st0" d="M67.4,16.9c0,2.5-0.5,4.7-1.4,6.5c-1,1.8-2.2,3.2-3.8,4.2c-1.6,1-3.2,1.8-5,2.2
			c-1.8,0.5-3.6,0.7-5.4,0.7c-2.5,0-5-0.4-7.3-1.3c-2.4-0.9-4.4-2.3-6-4.4c-1.6-2.1-2.4-4.7-2.4-8V1.5c0-0.5,0.4-1,1-1h7
			c0.5,0,1,0.4,1,1v13.1c0,2,0.3,3.6,0.8,4.8c0.6,1.3,1.3,2.2,2.4,2.8c1,0.6,2.2,0.9,3.6,0.9c1.3,0,2.5-0.3,3.5-0.9
			c1-0.6,1.8-1.5,2.4-2.8c0.6-1.3,0.8-2.9,0.8-4.8V1.5c0-0.5,0.4-1,1-1h7c0.5,0,1,0.4,1,1V16.9z"/>
		<path id="XMLID_556_" class="st1" d="M124.2,30.2h-8.4c-0.3,0-0.6-0.1-0.7-0.4l-9.5-11.7c-0.5-0.6-1.5-0.3-1.5,0.5v10.5
			c0,0.5-0.4,1-1,1h-7c-0.5,0-1-0.4-1-1V1.5c0-0.5,0.4-1,1-1h7c0.5,0,1,0.4,1,1v9.9c0,0.8,1,1.2,1.5,0.5l8.9-11
			c0.2-0.2,0.5-0.4,0.7-0.4h7.3c0.8,0,1.3,0.9,0.8,1.6l-9.3,11.7c-0.3,0.4-0.3,0.9,0,1.2l11.1,13.6C125.4,29.3,125,30.2,124.2,30.2z
			"/>
		<path id="XMLID_554_" class="st1" d="M83.4,27.2c0-0.9,0.3-1.8,0.8-2.5c0.1-0.2,0-0.4-0.2-0.4l-4,0c-0.5,0-1-0.4-1-1v-4.4
			c0-0.5,0.4-1,1-1h10.5c0.5,0,1-0.4,1-1v-4c0-0.5-0.4-1-1-1H80c-0.5,0-1-0.4-1-1V7.5c0-0.5,0.4-1,1-1h11.1c0.5,0,1-0.4,1-1v-4
			c0-0.5-0.4-1-1-1H71c-0.5,0-1,0.4-1,1v27.7c0,0.5,0.4,1,1,1l13,0c0.2,0,0.4-0.3,0.2-0.4C83.7,29,83.4,28.2,83.4,27.2z"/>
		<path id="XMLID_5_" class="st1" d="M145.8,17.2c-0.8-1.1-1.9-2.1-3.2-2.9c-1.4-0.8-3.2-1.8-5.5-2.9c-1.3-0.6-2.2-1.1-2.7-1.5
			c-0.5-0.4-0.7-0.9-0.7-1.5c0-0.6,0.2-1.1,0.7-1.6c0.4-0.3,1-0.5,1.8-0.6c0,0,0.1,0,0.1,0h9.2c0.5,0,1-0.4,1-0.9V1.1
			c0-0.5-0.4-0.9-1-0.9h-9.7c0,0,0,0,0,0c-2.3,0-4.3,0.4-5.9,1.1c-1.6,0.8-2.8,1.8-3.6,3.1c-0.8,1.3-1.2,2.7-1.2,4.3
			c0,1.6,0.4,3,1.2,4.2c0.8,1.2,1.8,2.2,3,3c1.2,0.8,2.7,1.5,4.3,2.2c1.1,0.4,2.1,0.8,3.4,1.7c0.8,0.5,1.2,1.2,1.2,2
			c0,0.4-0.2,0.9-0.7,1.4c-0.4,0.5-1.4,0.6-3,0.6h-7c-0.5,0-1,0.4-1,0.9v4.6c0,0.5,0.4,0.9,1,0.9h8.4v0c2.2,0,4.1-0.4,5.8-1.1
			c1.7-0.7,3-1.7,4-3.1s1.4-2.9,1.4-4.8C147,19.7,146.6,18.3,145.8,17.2z"/>
	</g>
</g>
</svg>
